<svg width="40" height="40" viewBox="0 0 40 40" fill="none" xmlns="http://www.w3.org/2000/svg">
<path d="M14.9997 18.3333C16.3182 18.3333 17.6071 17.9423 18.7035 17.2098C19.7998 16.4773 20.6543 15.4361 21.1589 14.2179C21.6635 12.9997 21.7955 11.6593 21.5382 10.3661C21.281 9.07286 20.6461 7.88497 19.7137 6.95262C18.7814 6.02027 17.5935 5.38534 16.3003 5.1281C15.0071 4.87087 13.6666 5.00289 12.4485 5.50747C11.2303 6.01206 10.1891 6.86654 9.45654 7.96287C8.724 9.0592 8.33301 10.3481 8.33301 11.6667C8.33301 13.4348 9.03539 15.1305 10.2856 16.3807C11.5359 17.631 13.2316 18.3333 14.9997 18.3333Z" fill="white"/>
<path d="M28.333 21.6668C29.3219 21.6668 30.2886 21.3735 31.1109 20.8241C31.9331 20.2747 32.574 19.4938 32.9524 18.5802C33.3308 17.6665 33.4299 16.6612 33.2369 15.6913C33.044 14.7214 32.5678 13.8305 31.8685 13.1312C31.1693 12.432 30.2784 11.9558 29.3085 11.7628C28.3386 11.5699 27.3332 11.6689 26.4196 12.0474C25.506 12.4258 24.7251 13.0667 24.1757 13.8889C23.6263 14.7111 23.333 15.6778 23.333 16.6668C23.333 17.9928 23.8598 19.2646 24.7975 20.2023C25.7352 21.14 27.0069 21.6668 28.333 21.6668Z" fill="white"/>
<path d="M34.9997 33.3333C35.4417 33.3333 35.8656 33.1577 36.1782 32.8451C36.4907 32.5326 36.6663 32.1086 36.6663 31.6666C36.665 30.1089 36.2271 28.5828 35.4024 27.2614C34.5776 25.94 33.399 24.8762 32.0003 24.1907C30.6015 23.5052 29.0387 23.2255 27.489 23.3833C25.9393 23.541 24.4649 24.13 23.233 25.0833C21.6005 23.4572 19.5231 22.3509 17.2627 21.904C15.0023 21.457 12.6602 21.6894 10.5317 22.5718C8.40323 23.4542 6.5837 24.9472 5.30258 26.8623C4.02146 28.7775 3.33612 31.0291 3.33301 33.3333C3.33301 33.7753 3.5086 34.1992 3.82116 34.5118C4.13372 34.8243 4.55765 34.9999 4.99967 34.9999H24.9997C25.4417 34.9999 25.8656 34.8243 26.1782 34.5118C26.4907 34.1992 26.6663 33.7753 26.6663 33.3333" fill="white"/>
</svg>
