<svg width="38" height="36" viewBox="0 0 38 36" fill="none" xmlns="http://www.w3.org/2000/svg">
<g clip-path="url(#clip0)">
<path d="M19.0009 11.3369C19.5137 11.3369 19.9295 11.7308 19.9295 12.2166V12.5423C19.9295 13.0282 19.5137 13.422 19.0009 13.422C18.4881 13.422 18.0723 13.0282 18.0723 12.5423V12.2166C18.0723 11.7308 18.4881 11.3369 19.0009 11.3369ZM0.929561 1.75942H6.77797V8.11235L4.49133 10.4347C4.14144 10.7899 4.16187 11.3466 4.53693 11.678C4.91189 12.0095 5.4994 11.9901 5.84929 11.6348L7.70646 9.74879L9.56354 11.6348C9.91352 11.9901 10.501 12.0094 10.876 11.678C11.2511 11.3465 11.2714 10.7899 10.9216 10.4346L8.63514 8.1127V1.75942H18.0723V8.11244L15.7857 10.4347C15.4359 10.79 15.4563 11.3466 15.8313 11.6781C16.2063 12.0096 16.794 11.9901 17.1438 11.6349L19.0008 9.74888L20.8578 11.6349C21.0408 11.8206 21.2886 11.9145 21.537 11.9145C21.7638 11.9145 21.9913 11.8363 22.1702 11.6781C22.5452 11.3467 22.5657 10.79 22.2158 10.4347L19.9294 8.11261V1.75942H29.3668V8.11244L27.0801 10.4347C26.7303 10.7899 26.7506 11.3466 27.1257 11.678C27.5006 12.0095 28.0881 11.99 28.4381 11.6348L30.2952 9.74879L32.1523 11.6348C32.5023 11.9901 33.09 12.0093 33.4647 11.678C33.8397 11.3466 33.8601 10.7899 33.5103 10.4347L31.224 8.11261V1.75942H37.0719C37.5847 1.75942 38.0005 1.36558 38.0005 0.879712C38.0005 0.393847 37.5847 0 37.0719 0H0.929561C0.416704 0 0.000976562 0.393847 0.000976562 0.879712C0.000976562 1.36558 0.416704 1.75942 0.929561 1.75942ZM29.3669 12.2166V12.5423C29.3669 13.0282 29.7827 13.422 30.2955 13.422C30.8083 13.422 31.2241 13.0282 31.2241 12.5423V12.2166C31.2241 11.7308 30.8083 11.3369 30.2955 11.3369C29.7827 11.3369 29.3669 11.7308 29.3669 12.2166ZM35.7418 18.8798V32.1001H37.072C37.5848 32.1001 38.0006 32.494 38.0006 32.9799C38.0006 33.4657 37.5848 33.8596 37.072 33.8596H34.8314C34.8193 33.8598 34.8071 33.8598 34.7949 33.8596H30.7644L31.068 34.8818C31.2068 35.3495 30.919 35.8353 30.4254 35.9668C30.3414 35.9893 30.2568 35.9999 30.1736 35.9999C29.768 35.9999 29.3953 35.7463 29.2801 35.3582L28.8353 33.8596H23.7021L23.2572 35.3582C23.1183 35.8259 22.6052 36.0985 22.1119 35.9668C21.6181 35.8353 21.3305 35.3495 21.4693 34.8818L21.7728 33.8596H16.2287L16.5322 34.8818C16.671 35.3495 16.3833 35.8353 15.8897 35.9668C15.396 36.0984 14.8832 35.8258 14.7444 35.3582L14.2995 33.8596H9.1662L8.72122 35.3582C8.5823 35.8259 8.06945 36.0985 7.5759 35.9668C7.08227 35.8353 6.79459 35.3495 6.93342 34.8818L7.23688 33.8596H3.20682C3.19466 33.8598 3.18249 33.8598 3.17033 33.8596H0.929561C0.416704 33.8596 0.000976562 33.4657 0.000976562 32.9799C0.000976562 32.494 0.416704 32.1001 0.929561 32.1001H2.26004V18.8798H0.929561C0.416704 18.8798 0.000976562 18.4859 0.000976562 18C0.000976562 17.5142 0.416704 17.1203 0.929561 17.1203H4.51882V15.8599C4.51882 15.374 4.93455 14.9802 5.4474 14.9802C5.96026 14.9802 6.37599 15.374 6.37599 15.8599V17.1203H8.72196C8.67535 17.0155 8.64953 16.9002 8.64953 16.7792C8.64953 16.2933 9.06526 15.8995 9.57812 15.8995H12.7057C13.2185 15.8995 13.6343 16.2933 13.6343 16.7792C13.6343 16.9001 13.6085 17.0155 13.5618 17.1203H37.0719C37.5847 17.1203 38.0005 17.5142 38.0005 18C38.0005 18.4859 37.5847 18.8798 37.0719 18.8798H35.7418ZM13.7772 32.1001L11.9868 26.0694H11.4789L9.68853 32.1001H13.7772ZM10.7543 24.3099C10.768 24.3098 10.7819 24.3098 10.7957 24.3099H12.6697C12.6838 24.3096 12.6977 24.3097 12.7117 24.3099H14.8104V22.8441H8.65548V24.3099H10.7543ZM28.313 32.1001L26.5227 26.0694H26.0147L24.2244 32.1001H28.313ZM25.2899 24.3099C25.3036 24.3097 25.3178 24.3096 25.3317 24.3099H27.2057C27.2197 24.3097 27.2337 24.3098 27.2475 24.3099H29.3462V22.8441H23.1913V24.3099H25.2899ZM33.8847 18.8798H4.11721V32.1001H7.7593L9.5497 26.0694H7.72689C7.21404 26.0694 6.79831 25.6755 6.79831 25.1897V21.9644C6.79831 21.4785 7.21404 21.0847 7.72689 21.0847H15.7389C16.2518 21.0847 16.6675 21.4785 16.6675 21.9644V25.1897C16.6675 25.6755 16.2518 26.0694 15.7389 26.0694H13.916L15.7064 32.1001H22.2951L24.0855 26.0694H22.2627C21.7499 26.0694 21.3341 25.6755 21.3341 25.1897V21.9644C21.3341 21.4785 21.7499 21.0847 22.2627 21.0847H30.2747C30.7875 21.0847 31.2033 21.4785 31.2033 21.9644V25.1897C31.2033 25.6755 30.7875 26.0694 30.2747 26.0694H28.4518L30.2421 32.1001H33.8846V18.8798H33.8847ZM6.77806 12.2166V12.5423C6.77806 13.0282 7.19379 13.422 7.70665 13.422C8.21951 13.422 8.63523 13.0282 8.63523 12.5423V12.2166C8.63523 11.7308 8.21951 11.3369 7.70665 11.3369C7.19379 11.3369 6.77806 11.7308 6.77806 12.2166Z" fill="white"/>
</g>
<defs>
<clipPath id="clip0">
<rect width="38" height="36" fill="white"/>
</clipPath>
</defs>
</svg>
