<svg width="42" height="40" viewBox="0 0 42 40" fill="none" xmlns="http://www.w3.org/2000/svg">
<g clip-path="url(#clip0)">
<path d="M31.2786 18.5452C29.3287 19.4295 27.7389 22.1144 25.8791 20.3428C24.7489 19.1745 23.4081 17.3158 21.8674 15.2135C20.2015 12.9533 18.0778 11.0101 15.579 13.2304C12.7893 15.7293 10.8732 22.5106 10.707 26.0005L37.0664 26.0091C36.4633 23.9584 34.1204 17.2564 31.2786 18.5452Z" fill="white"/>
<path d="M31.1562 14.6074C32.9462 14.6074 34.3973 13.2254 34.3973 11.5206C34.3973 9.81584 32.9462 8.43384 31.1562 8.43384C29.3662 8.43384 27.915 9.81584 27.915 11.5206C27.915 13.2254 29.3662 14.6074 31.1562 14.6074Z" fill="white"/>
<path d="M41.0364 4.47559H6.73902C6.20722 4.47559 5.77538 4.88645 5.77538 5.39291V10.0328H0.963632C0.43184 10.0333 0 10.4437 0 10.9502V34.6063C0 35.1131 0.43184 35.5236 0.963632 35.5236H35.261C35.7928 35.5236 36.2246 35.1123 36.2246 34.6063V29.9671H41.0368C41.5682 29.9671 42.0004 29.5563 42.0004 29.0498V5.39291C42 4.88686 41.5677 4.47559 41.0364 4.47559ZM33.6383 33.0613H2.58634V12.4964H5.77538V26.7945C5.29143 28.5751 4.99329 30.2861 4.93263 31.5589L31.2924 31.5671C31.1767 31.1749 30.9964 30.6111 30.7619 29.9671H33.6383V33.0613ZM39.4137 27.5036H8.36173V6.93915H39.4137V27.5036Z" fill="white"/>
</g>
<defs>
<clipPath id="clip0">
<rect width="42" height="40" fill="white"/>
</clipPath>
</defs>
</svg>
