<svg width="38" height="41" viewBox="0 0 38 41" fill="none" xmlns="http://www.w3.org/2000/svg">
<path d="M34.8532 12.0331C34.224 12.0331 33.7138 12.5836 33.7138 13.2625C33.7138 13.9414 34.224 14.4919 34.8532 14.4919C35.3318 14.4919 35.7212 14.911 35.7212 15.426V31.3565C35.7212 32.6741 34.7277 33.7459 33.5066 33.7459C32.2854 33.7459 31.292 32.6741 31.292 31.3565V8.18847C31.292 6.31754 29.8804 4.79541 28.1451 4.79541H3.14449C1.4106 4.79541 0 6.31754 0 8.18847V32.8095C0 34.639 1.34816 36.1312 3.02781 36.1983C3.06625 36.2025 3.10514 36.2047 3.14464 36.2047H30.1526H33.5066C35.9843 36.2047 38 34.0298 38 31.3565V15.426C38 13.5552 36.5883 12.0331 34.8532 12.0331ZM2.27883 32.8095V8.18847C2.27883 7.67329 2.66715 7.25415 3.14449 7.25415H28.1451C28.6237 7.25415 29.0132 7.67329 29.0132 8.18847V31.3565C29.0132 32.225 29.2269 33.0401 29.5992 33.7459H3.14449C2.66715 33.7459 2.27883 33.3258 2.27883 32.8095Z" fill="white"/>
<path d="M23.7355 15.1101H16.6433C16.0141 15.1101 15.5039 15.6605 15.5039 16.3395C15.5039 17.0184 16.0141 17.5689 16.6433 17.5689H23.7355C24.3648 17.5689 24.8749 17.0184 24.8749 16.3395C24.8749 15.6605 24.3648 15.1101 23.7355 15.1101Z" fill="white"/>
<path d="M23.7352 21.2302H7.77809C7.14883 21.2302 6.63867 21.7807 6.63867 22.4596C6.63867 23.1385 7.14883 23.689 7.77809 23.689H23.7352C24.3645 23.689 24.8747 23.1385 24.8747 22.4596C24.8747 21.7807 24.3645 21.2302 23.7352 21.2302Z" fill="white"/>
<path d="M23.7352 27.3501H7.77809C7.14883 27.3501 6.63867 27.9005 6.63867 28.5795C6.63867 29.2584 7.14883 29.8088 7.77809 29.8088H23.7352C24.3645 29.8088 24.8747 29.2584 24.8747 28.5795C24.8747 27.9005 24.3645 27.3501 23.7352 27.3501Z" fill="white"/>
<path d="M7.55641 17.569H12.0999C12.7292 17.569 13.2394 17.0186 13.2394 16.3396V11.4374C13.2394 10.7584 12.7292 10.208 12.0999 10.208C11.4707 10.208 10.9605 10.7584 10.9605 11.4374V15.1102H7.55641C6.92715 15.1102 6.41699 15.6607 6.41699 16.3396C6.41699 17.0186 6.92715 17.569 7.55641 17.569Z" fill="white"/>
</svg>
