<svg width="42" height="55" viewBox="0 0 42 55" fill="none" xmlns="http://www.w3.org/2000/svg">
<path d="M41.2499 6.875H0.750086C0.335489 6.875 0 7.31433 0 7.857V14.732V34.3749V47.1427C0 47.6856 0.335489 48.1249 0.750086 48.1249H41.2499C41.6645 48.1249 42 47.6856 42 47.1427V34.3749V14.732V7.857C42 7.31433 41.6645 6.875 41.2499 6.875ZM1.49998 15.7143H8.24998V33.3929H1.49998V15.7143ZM40.5 33.3929H38.25V15.7143H40.5V33.3929ZM40.5 13.75H37.5001C37.0855 13.75 36.75 14.1894 36.75 14.7323V34.3751C36.75 34.9181 37.0855 35.3574 37.5001 35.3574H40.5V46.1609H1.49998V46.1607V35.3571H9.00007C9.41467 35.3571 9.75015 34.9178 9.75015 34.3749V14.732C9.75015 14.1891 9.41467 13.7498 9.00007 13.7498H1.49998V8.83926H40.5V13.75Z" fill="white"/>
<path d="M21.75 43.2142C22.5784 43.2142 23.25 42.3347 23.25 41.2499C23.25 40.1651 22.5784 39.2856 21.75 39.2856C20.9216 39.2856 20.25 40.1651 20.25 41.2499C20.25 42.3347 20.9216 43.2142 21.75 43.2142Z" fill="white"/>
<path d="M12.7501 35.3573H33.75C34.1646 35.3573 34.5001 34.918 34.5001 34.3751V14.732C34.5001 14.1893 34.1646 13.75 33.7502 13.75H12.7501C12.3355 13.75 12 14.1893 12 14.7323V34.3751C12 34.918 12.3355 35.3573 12.7501 35.3573ZM13.5002 15.7143H33.0001V33.3928H13.5002V15.7143Z" fill="white"/>
<path d="M15.0001 40.2681H12.75V42.2323H15.0001V40.2681Z" fill="white"/>
<path d="M18.7501 40.2681H16.5V42.2323H18.7501V40.2681Z" fill="white"/>
<path d="M27.0001 40.2681H24.75V42.2323H27.0001V40.2681Z" fill="white"/>
<path d="M30.7501 40.2681H28.5V42.2323H30.7501V40.2681Z" fill="white"/>
</svg>
