<svg xmlns="http://www.w3.org/2000/svg" width="23" height="27" fill="none" viewBox="0 0 23 27"><path fill="#18535B" d="M17.9924 18.5169C17.1556 18.5169 16.376 18.7602 15.7187 19.1785L9.08495 14.5471C9.19144 14.1753 9.24967 13.7832 9.24967 13.3773C9.24967 12.9713 9.19144 12.5791 9.08495 12.2074L15.5396 7.70096C16.2322 8.19289 17.0781 8.48313 17.9924 8.48313C20.3349 8.48313 22.2339 6.5841 22.2339 4.24159C22.2339 1.89908 20.3349 0 17.9924 0C15.6499 0 13.7509 1.89903 13.7509 4.24153C13.7509 4.5509 13.7849 4.85221 13.8478 5.14274L7.22919 9.76365C6.58313 9.36573 5.82263 9.13572 5.00814 9.13572C2.66563 9.13572 0.766602 11.0347 0.766602 13.3773C0.766602 15.7198 2.66557 17.6188 5.00814 17.6188C5.82257 17.6188 6.58313 17.3888 7.22919 16.9909L13.8989 21.6474C13.803 22.0017 13.7509 22.3739 13.7509 22.7585C13.7509 25.101 15.6499 27 17.9924 27C20.3349 27 22.234 25.101 22.234 22.7585C22.234 20.416 20.3349 18.5169 17.9924 18.5169Z"/></svg>